<?xml version="1.0" standalone="no"?>
<!DOCTYPE svg PUBLIC "-//W3C//DTD SVG 20010904//EN"
 "http://www.w3.org/TR/2001/REC-SVG-20010904/DTD/svg10.dtd">
<svg version="1.0" xmlns="http://www.w3.org/2000/svg"
 width="16.000000pt" height="16.000000pt" viewBox="0 0 16.000000 16.000000"
 preserveAspectRatio="xMidYMid meet">
<metadata>
Created by potrace 1.11, written by Peter Selinger 2001-2013
</metadata>
<g transform="translate(0.000000,16.000000) scale(0.003053,-0.003053)"
fill="#000000" stroke="none">
<path d="M2457 5234 c-2 -2 -17 -6 -33 -8 -96 -13 -134 -20 -212 -42 -48 -13
-94 -26 -102 -28 -72 -20 -229 -91 -493 -222 -70 -35 -128 -63 -130 -63 -11 2
-162 -68 -517 -239 -63 -30 -118 -54 -122 -54 -5 1 -8 -3 -8 -8 0 -6 -9 -10
-20 -10 -22 0 -60 -19 -72 -35 -4 -5 -8 -7 -8 -3 0 4 -21 -4 -47 -19 -27 -14
-57 -31 -68 -37 -11 -6 -22 -13 -25 -16 -3 -3 -32 -25 -65 -49 -53 -40 -165
-147 -203 -195 -32 -40 -102 -150 -102 -159 0 -6 -6 -18 -14 -26 -21 -25 -64
-148 -85 -246 -16 -73 -19 -118 -16 -235 2 -80 6 -156 8 -170 3 -14 8 -54 12
-90 3 -36 8 -83 10 -105 3 -22 7 -65 10 -95 2 -30 7 -75 10 -100 3 -25 7 -65
9 -90 4 -39 12 -124 21 -210 2 -14 4 -25 4 -25 1 0 4 -31 6 -70 2 -38 6 -79 8
-90 3 -11 8 -58 12 -105 4 -47 8 -96 10 -110 5 -36 14 -121 20 -182 3 -29 7
-73 10 -98 3 -25 7 -70 10 -100 2 -30 7 -73 9 -95 3 -22 8 -71 11 -110 8 -95
16 -143 35 -210 6 -22 12 -47 14 -55 6 -19 30 -79 67 -158 81 -177 229 -353
407 -484 65 -48 425 -258 443 -258 5 0 9 -4 9 -10 0 -5 4 -10 9 -10 5 0 46
-21 92 -46 138 -77 502 -270 596 -317 142 -71 301 -120 418 -131 11 -1 25 -4
30 -7 12 -7 386 -4 440 4 43 6 85 13 125 22 14 3 36 8 50 11 66 13 188 67 445
195 154 76 303 151 330 167 28 16 75 41 105 57 30 17 66 37 80 46 14 9 70 43
125 75 55 33 102 62 103 67 2 4 8 7 14 7 5 0 56 32 112 71 197 134 390 348
472 522 14 29 29 59 34 67 26 45 74 194 85 265 5 29 17 153 21 205 1 25 3 45
4 45 1 0 3 18 5 40 3 40 13 132 20 195 2 19 7 67 10 105 4 39 8 81 10 95 1 14
6 59 9 100 4 41 9 89 12 105 2 17 6 59 9 95 3 36 7 81 10 100 2 19 7 62 10 95
9 96 14 146 20 195 2 25 7 70 10 100 3 30 7 75 10 100 3 25 7 68 10 95 2 28 8
77 11 110 10 82 11 301 2 350 -15 83 -20 100 -38 154 -19 58 -70 172 -92 206
-20 30 -91 129 -102 142 -50 55 -100 104 -155 150 -91 76 -100 83 -108 83 -3
0 -27 13 -52 28 -25 15 -71 38 -101 51 -94 40 -140 61 -385 177 -44 20 -82 38
-85 39 -3 0 -77 36 -165 79 -88 43 -194 94 -235 113 -149 69 -220 104 -225
114 -4 5 -13 9 -22 9 -9 0 -24 6 -32 13 -52 43 -307 123 -481 151 -74 12 -373
19 -383 10z"/>
</g>
</svg>
