<?xml version="1.0" standalone="no"?>
<!DOCTYPE svg PUBLIC "-//W3C//DTD SVG 1.1//EN" "http://www.w3.org/Graphics/SVG/1.1/DTD/svg11.dtd" >
<svg xmlns="http://www.w3.org/2000/svg">
<metadata>
<json>
<![CDATA[
{
	"fontFamily": "trinity",
	"description": "Font generated by IcoMoon.",
	"majorVersion": 1,
	"minorVersion": 0,
	"version": "Version 1.0",
	"fontId": "trinity",
	"psName": "trinity",
	"subFamily": "Regular",
	"fullName": "trinity"
}
]]>
</json>
</metadata>
<defs>
<font id="trinity" horiz-adv-x="1024">
<font-face units-per-em="1024" ascent="960" descent="-64" />
<missing-glyph horiz-adv-x="1024" />
<glyph unicode="&#x20;" horiz-adv-x="512" d="" />
<glyph unicode="&#xe900;" glyph-name="company" data-tags="company" d="M773.464 785.51c43.893 0 85.981 0 128.068 0 31.249 0 62.679 0 93.928 0 22.579 0 28.54-5.961 28.54-28.359 0-88.148 0-176.296 0-264.445 0-175.574 0-351.148 0-526.721 0-23.843-6.141-29.985-30.346-29.985-320.802 0-641.784 0-962.585 0-25.469 0-31.069 5.6-31.069 31.249 0 164.736 0 329.291 0 494.027 0 98.264 0 196.708 0 294.971 0 23.301 5.78 29.082 28.901 29.082 69.362 0 138.906 0 208.268 0 3.974 0 8.128 0 13.547 0 0 4.335 0 7.948 0 11.56 0 45.519 0 91.219 0 136.738 0 18.966 7.045 26.372 25.65 26.372 157.149 0 314.299 0 471.629 0 18.063 0 25.469-7.587 25.469-25.469 0-45.519 0-91.219 0-136.738 0-3.793 0-7.406 0-12.283zM44.435-19.384c312.493 0 623.54 0 935.129 0 0 158.053 0 315.383 0 473.074-111.63 0-222.719 0-334.71 0 0-3.974 0-7.225 0-10.657 0-36.488 0-72.794 0-109.282 0-18.424-6.503-24.927-25.288-24.927-71.53 0-142.88 0-214.41 0-19.689 0-26.011 6.503-26.011 26.553 0 35.765 0 71.53 0 107.114 0 3.613 0 7.225 0 11.199-112.172 0-223.261 0-334.71 0 0-158.053 0-315.383 0-473.074zM46.422 500.112c312.493 0 623.901 0 934.949 0 0 81.826 0 161.485 0 241.143-312.131 0-623.359 0-934.949 0 0-80.742 0-160.943 0-241.143zM729.209 786.774c0 43.171 0 85.8 0 128.429-145.228 0-289.914 0-434.599 0 0-43.352 0-85.619 0-128.429 145.228 0 289.733 0 434.599 0zM533.585 352.898c23.663 0 46.422 0 69.543 0 0 33.959 0 67.195 0 100.792-59.428 0-118.494 0-177.561 0 0-34.139 0-67.556 0-100.973 21.676 0 42.629 0 64.847 0 0 17.341 0 34.139 0 51.299 14.992 0 28.72 0 43.352 0-0.181-17.341-0.181-33.778-0.181-51.119z" />
<glyph unicode="&#xe901;" glyph-name="dashboard" data-tags="dashboard" d="M993.293 519.62c-40.642 38.113-81.465 75.865-121.926 114.159-3.432 3.251-5.961 9.032-5.961 13.547-0.181 67.737 0.181 135.293 0.361 203.030 0 13.186-7.406 21.495-20.773 21.495-45.339 0.181-90.677 0.181-136.016 0-14.089 0-20.592-6.864-20.773-21.134-0.181-14.992 0-29.804 0-46.784-3.793 3.251-6.322 5.058-8.49 7.225-50.938 47.506-102.057 94.832-152.995 142.338-2.709 2.529-5.78 4.335-8.851 6.503-3.974 0-7.948 0-11.922 0-24.566-22.398-49.493-44.616-73.878-67.195-110.366-102.237-220.551-204.655-330.736-307.074-31.249-29.082-62.318-58.163-93.386-87.245-2.89-2.709-5.419-5.6-7.948-8.49 0-3.974 0-7.948 0-11.922 10.657-15.534 20.050-16.437 34.139-3.432 17.341 16.076 34.681 32.152 54.009 50.035 0-5.961 0-9.573 0-13.367 0-183.702 0-367.224-0.181-550.926 0-10.838 3.071-18.605 12.102-24.205 274.741 0 549.3 0 824.041 0 9.573 5.78 12.102 14.27 12.102 25.288-0.181 182.98-0.181 365.959-0.181 548.939 0 3.974 0 7.767 0 14.27 10.477-9.754 19.508-17.883 28.359-26.011 8.49-7.948 17.16-15.896 25.65-23.843 13.909-13.005 23.482-12.102 34.139 3.432 0 3.974 0 7.948 0 11.922-10.296 9.754-20.592 19.689-30.888 29.443zM723.971 835.726c35.404 0 69.904 0 105.489 0 0-54.37 0-107.837 0-162.388-1.987 1.445-3.432 1.987-4.516 3.071-31.43 29.262-62.86 58.525-94.29 87.787-4.696 4.335-6.864 8.851-6.864 15.534 0.542 18.424 0.181 36.849 0.181 55.996zM617.94-27.874c-71.169 0-140.712 0-211.881 0 0 3.793 0 7.225 0 10.657 0 118.675 0 237.169 0 355.844 0 17.341 3.793 21.134 20.953 21.134 57.26 0 114.52 0 171.961 0 14.451 0 18.966-4.335 18.966-18.063 0-120.301 0-240.601 0-360.902 0-2.529 0-5.238 0-8.67zM900.267-11.256c0-5.238 0-10.477 0-16.618-82.187 0-163.652 0-246.923 0 0 5.6 0 10.477 0 15.354 0 115.243 0 230.666 0 345.909 0 7.948-0.542 16.076-2.709 23.663-7.045 22.94-28.179 37.933-53.106 37.933-57.080 0.181-113.978 0.181-171.058 0-32.333-0.181-55.815-23.843-55.815-56.538-0.181-117.591 0-235.363 0-352.954 0-4.335 0-8.49 0-13.547-82.368 0-164.013 0-246.923 0 0 3.251 0 6.322 0 9.573 0 188.941 0 377.881 0.361 567.002 0 5.058 3.251 11.56 7.045 14.992 116.869 109.282 234.098 218.022 351.328 326.943 9.573 8.851 18.966 17.702 29.262 27.095 3.251-2.89 6.322-5.238 9.212-7.948 121.565-112.895 243.13-225.97 365.056-338.684 10.477-9.573 14.631-18.966 14.631-33.236-0.542-182.98-0.361-365.959-0.361-548.939z" />
<glyph unicode="&#xe902;" glyph-name="newsletters" data-tags="newsletters" d="M0 77.073c0 247.646 0 495.292 0 743.479 340.852 0 681.703 0 1022.374 0 0.542-4.335 1.626-8.49 1.626-12.825 0-239.698 0-479.577 0-719.275 0-3.793 0-7.767 0-12.283-4.877-0.181-8.309-0.542-11.922-0.542-333.446 0-666.892 0-1000.518 0-3.793-0.181-7.587 0.903-11.56 1.445zM512.271 369.335c22.398 17.16 43.713 33.417 65.027 49.854 130.777 100.25 261.735 200.501 392.332 300.932 2.89 2.348 6.864 5.6 7.045 8.67 0.723 14.451 0.361 28.72 0.361 43.532-310.506 0-619.566 0-929.71 0 0-12.283 0.542-24.024-0.181-35.404-0.542-8.128 2.348-13.005 8.851-18.063 113.798-86.884 227.234-174.129 340.852-261.013 38.294-29.443 76.588-58.705 115.424-88.509zM377.159 414.673c-98.083-97.902-195.263-194.901-292.081-291.539 284.495 0 570.254 0 855.651 0-97.541 97.18-194.721 194.359-292.623 291.901-1.806-1.264-4.696-3.251-7.587-5.419-40.1-30.707-80.2-61.234-120.12-92.122-6.322-5.058-10.477-4.696-16.618 0.181-37.752 29.443-76.046 58.344-113.978 87.606-4.696 3.613-9.754 7.225-12.644 9.393zM976.313 159.802c0 167.445 0 336.336 0 506.671-96.999-74.24-192.553-147.395-287.385-219.829 96.457-96.277 192.011-191.65 287.385-286.843zM48.048 160.164c95.373 95.193 191.108 190.747 287.204 286.662-94.832 72.433-190.386 145.589-287.204 219.829 0-170.697 0-339.407 0-506.491z" />
<glyph unicode="&#xe903;" glyph-name="notification" data-tags="notification" d="M512.090-64c56.357 0 102.418 46.061 102.418 102.418h-204.836c0-56.357 46.061-102.418 102.418-102.418zM844.814 243.074v281.785c0 158.775-107.476 286.662-255.955 322.608v35.765c0 41.003-35.946 76.768-76.768 76.768-41.003 0-76.768-35.765-76.768-76.768v-35.765c-148.66-35.946-256.135-164.013-256.135-322.608v-281.605l-102.418-102.418v-51.119h870.463v51.119l-102.418 102.237z" />
<glyph unicode="&#xe904;" glyph-name="products" data-tags="products" d="M0 781.717c4.877 8.309 12.102 11.199 21.495 11.56 34.501 1.264 66.292 13.367 98.805 23.301 45.7 14.27 91.219 29.624 137.461 41.365 46.964 11.741 94.832 13.728 142.338-0.181 44.435-13.186 79.839-39.016 106.031-77.13 1.445-2.168 3.071-4.335 4.696-6.503 0.181-0.181 0.542-0.361 2.89-1.445 0.181 0.542 0.361 1.987 1.084 3.071 45.158 67.917 110.366 94.109 189.482 90.858 59.247-2.529 114.882-21.315 170.516-39.558 35.946-11.741 72.614-21.676 109.101-31.972 6.683-1.806 13.909-1.445 20.773-1.987 14.27-1.084 19.508-6.503 19.508-20.953 0-78.575 0-157.33 0-235.905 0-139.267 0-278.714 0-417.981 0-19.508-5.78-24.566-25.65-23.301-41.365 2.709-80.020 16.799-118.675 29.985-46.242 15.896-92.303 32.514-141.073 39.739-39.558 5.961-79.117 6.683-117.41-7.587-22.579-8.309-42.087-21.315-58.705-38.655-9.573-9.935-18.244-11.019-26.011-3.974s-6.864 17.521 2.529 27.095c39.739 40.461 88.871 58.705 144.686 59.97 54.37 1.264 106.211-12.283 157.33-28.72 41.726-13.367 83.632-26.733 125.539-39.92 7.225-2.168 14.992-2.89 23.663-4.335 0.181 4.516 0.542 8.128 0.542 11.741 0 202.307 0 404.615 0.181 606.922 0 10.296-2.709 13.005-13.005 15.534-37.391 9.393-74.42 20.050-111.088 31.972-44.074 14.27-87.606 29.624-133.667 36.126-38.113 5.238-75.685 5.238-112.353-8.851-43.713-16.979-74.059-47.506-91.941-90.496-3.251-8.128-7.406-14.27-16.979-14.27s-13.547 6.141-16.979 14.27c-27.456 64.485-77.672 96.818-146.312 101.876-49.312 3.613-96.638-7.948-143.241-22.76-42.81-13.547-85.439-27.817-128.248-41.365-11.019-3.432-22.579-5.961-34.139-7.045-8.309-0.903-10.115-4.155-10.115-11.922 0.181-75.685 0.181-151.369 0.181-227.054 0-126.623 0-253.245 0-380.049 0-4.335 0-8.49 0-14.992 11.741 2.348 22.579 3.613 32.875 6.683 43.171 13.547 85.981 27.998 129.152 41.545 48.229 15.173 96.999 26.733 147.937 24.927 54.009-1.806 101.515-19.689 140.351-58.525 1.806-1.806 3.793-3.793 5.419-5.78 5.419-7.225 4.696-16.979-1.445-22.579-6.683-6.141-15.354-6.141-22.579 0.361-7.406 6.683-14.27 14.089-22.218 20.050-33.778 25.83-72.794 34.501-114.701 33.597-51.661-1.084-100.25-15.896-148.84-31.611-40.823-13.186-81.826-25.65-123.010-37.752-10.115-2.89-21.134-2.709-31.611-4.335-10.657-1.626-18.966 1.445-24.566 10.838 0 225.428 0 450.856 0 676.104zM0 51.785c6.322 7.948 14.451 9.754 24.385 10.296 32.875 1.806 63.582 13.186 94.832 22.94 48.59 14.992 96.818 31.249 146.312 43.171 49.854 12.102 100.431 11.922 149.563-6.503 22.94-8.67 43.713-21.315 61.595-38.113 5.058-4.696 10.115-7.225 16.799-6.322 0.723 0.181 1.264 0 1.987 0 27.095-2.709 49.674 3.251 72.794 21.495 41.907 33.417 93.206 39.92 145.95 35.946 62.86-4.696 121.204-26.372 180.451-45.88 31.249-10.296 63.402-17.702 95.193-26.011 5.058-1.264 10.657-0.903 15.896-1.264 11.38-0.542 18.605-7.045 18.605-16.618 0-9.935-7.948-17.702-19.689-16.257-20.773 2.529-41.907 4.696-61.776 10.477-47.506 13.909-94.29 30.527-141.615 45.158-41.545 12.825-84.174 20.592-127.887 17.521-42.81-2.89-79.839-18.605-110.546-49.312-4.696-4.696-12.464-7.948-18.966-8.309-20.953-1.084-41.907-0.903-63.040-0.181-5.78 0.181-13.005 2.348-16.799 6.322-36.849 38.475-82.729 52.925-134.57 52.022-49.854-0.903-97.18-14.631-144.144-29.804-39.558-12.825-79.117-25.65-118.856-37.391-13.186-3.974-27.456-4.335-41.365-6.503-11.199-1.626-19.689 1.445-25.108 11.019 0 4.155 0 8.128 0 12.102zM495.653 422.802c0 80.020 0 160.040 0 239.879 0 3.071-0.181 6.141 0.361 9.032 1.626 8.67 7.587 13.547 16.076 13.547s14.631-4.877 15.896-13.547c0.903-6.503 0.361-13.367 0.361-20.050 0-156.608 0-313.215 0-469.823 0-3.071 0.361-6.141-0.361-9.032-1.806-8.67-7.225-13.367-16.076-13.367s-14.27 4.877-16.076 13.547c-0.542 2.168-0.361 4.696-0.361 7.045 0.181 80.923 0.181 161.846 0.181 242.769z" />
<glyph unicode="&#xe905;" glyph-name="profile" data-tags="profile" d="M513.174 960c-279.076 1.084-511.729-230.847-512.993-511.548-1.084-278.353 231.389-511.548 511.187-512.452 279.798 0.542 511.368 231.389 512.452 511.007 1.084 278.173-231.028 511.91-510.645 512.993zM227.776 74.725c14.451 6.503 28.72 12.283 42.448 19.147 32.514 16.437 65.027 33.056 96.999 50.396 12.102 6.503 23.121 15.173 34.32 23.482 20.773 15.354 34.501 34.32 30.165 61.957-0.181 1.264-0.181 2.709 0 3.974 2.348 18.244-3.793 32.514-16.618 46.422-23.301 25.288-36.126 56.538-46.784 89.051-2.529 7.587-7.406 15.173-13.186 20.411-20.773 18.605-23.663 41.003-8.49 64.305 4.335 6.683 7.045 15.354 7.225 23.301 1.084 37.571-0.903 75.143 2.168 112.533 5.238 66.834 39.92 104.947 105.308 118.133 41.003 8.309 82.007 7.587 122.468-3.432 51.841-14.089 84.536-51.48 88.509-104.947 3.071-40.642 1.445-81.645 2.89-122.649 0.181-7.587 2.89-16.076 7.045-22.398 16.076-24.385 13.186-46.603-9.032-65.569-5.058-4.335-9.754-10.657-11.56-16.979-11.922-39.016-29.624-74.601-57.621-104.586-3.793-3.974-5.6-10.838-6.141-16.437-0.903-11.741 0.181-23.663-0.361-35.404-0.542-10.838 2.529-20.592 10.115-27.637 12.464-11.741 25.108-23.663 39.197-33.417 44.255-30.346 92.845-52.203 141.615-74.059 3.071-1.264 5.961-2.709 9.935-4.696-171.419-133.848-419.607-122.288-570.615-0.903z" />
<glyph unicode="&#xe906;" glyph-name="projects" data-tags="projects" d="M0 209.115c0 2.709 0 5.419 0 7.948 0.542 3.613 1.445 7.225 1.445 10.657 0 75.865 0 151.73 0 227.596 0 3.251-0.903 6.322-1.445 9.573 0 2.709 0 5.419 0 7.948 0.542 3.613 1.445 7.225 1.445 10.657 0 75.865 0 151.73 0 227.596 0 3.974-0.903 7.767-1.445 11.56 0 1.987 0 3.974 0 5.961 2.529 4.155 4.696 8.67 7.767 12.283 59.428 68.279 118.856 136.196 178.645 203.933 4.877 5.6 11.741 9.573 17.521 14.27 206.642 0 413.285 0 619.927 0 5.058-3.613 11.019-6.503 14.992-11.019 59.428-67.556 118.494-135.474 177.922-203.030 5.058-5.78 7.045-11.199 7.045-18.605-0.181-230.666-0.361-461.152 0.181-691.819 0-28.72-10.477-51.119-29.985-70.085-18.063-17.883-39.197-27.637-65.93-27.637-278.173 0.542-556.526 0.361-834.698 0.181-12.825 0-24.385 2.89-35.223 9.032-35.946 21.134-56.718 51.661-56.718 94.47 0 52.383 0 104.586 0 156.969 0 3.793-0.903 7.767-1.445 11.56zM312.131 447.91c-90.135 0-178.825 0-267.515 0 0-71.349 0-141.796 0-212.965 4.696 0 8.67 0 12.464 0 90.677 0 181.354 0 272.031 0 17.702 0 25.469-8.309 25.288-25.83-0.181-30.707-0.181-61.234 0-91.941 0.181-34.32 18.966-53.286 53.467-53.286 70.266-0.181 140.712-0.181 210.978 0 6.683 0 13.367 0.542 19.869 2.168 22.037 5.6 34.501 23.121 35.043 49.674 0.542 30.346 0.181 60.692 0.181 91.038 0 22.037 6.322 28.179 28.72 28.179 89.593 0 179.367 0 268.96 0 3.974 0 7.767 0 11.922 0 0 71.711 0 142.338 0 213.145-89.413 0-177.922 0-267.335 0 0-24.566 0-48.409 0-72.433 0-55.273-42.99-98.264-98.083-98.264-69.362 0-138.725 0-207.907 0-54.731 0-97.541 42.99-97.541 97.541-0.723 24.024-0.542 48.048-0.542 72.975zM44.255 490.9c4.696 0 9.032 0 13.186 0 90.316 0 180.632 0 270.947 0 18.244 0 26.011-8.128 25.83-26.192-0.181-29.624-0.181-59.247-0.181-88.871 0-37.571 18.244-55.815 55.815-55.996 69.362-0.181 138.544-0.181 207.907 0 36.849 0 55.454 18.424 55.635 55.273 0.181 29.624 0 59.247 0 88.871 0 20.050 6.864 26.914 27.095 26.914 91.038 0 181.896 0 272.934 0 3.251 0 6.503 0.361 9.935 0.361 0 71.169 0 141.615 0 212.603-89.232 0-178.103 0-267.696 0 0-25.83 0.181-51.119 0-76.407-0.361-51.119-42.81-94.651-93.928-95.012-71.349-0.542-142.518-0.181-213.868-0.181-28.359 0-51.661 11.38-70.446 32.152-16.618 18.244-25.288 39.558-25.288 64.485s0 49.854 0 75.143c-89.774 0-178.645 0-267.696 0-0.181-71.169-0.181-141.615-0.181-213.145zM956.986 746.855c-1.084 2.168-1.445 3.251-1.987 3.974-46.784 53.286-93.386 106.753-140.351 160.040-2.89 3.251-9.212 5.238-13.909 5.238-191.289 0.181-382.397 0.181-573.686 0.361-7.045 0-11.741-2.348-16.257-7.587-44.977-51.841-90.316-103.321-135.474-154.982-1.626-1.806-2.709-3.974-4.877-7.045 5.238 0 8.851 0 12.464 0 82.007 0 163.833 0 245.839 0 17.702 0 25.469-8.128 25.469-25.83-0.181-30.346-0.181-60.692-0.181-90.858 0-36.668 18.786-55.454 55.273-55.454 69.543 0 139.267 0 208.81 0 36.668 0 55.093 18.424 55.093 55.454 0 30.707 0 61.234 0.181 91.941 0 17.341 7.587 24.747 25.288 24.747 31.249 0 62.679 0 93.928 0 54.37 0 108.74 0 164.375 0zM43.713 192.135c0-4.155 0-7.767 0-11.38 0-46.242 0-92.664 0-138.906 0-43.171 21.134-64.666 64.305-64.666 271.309 0 542.617 0 813.926 0 39.739 0 61.957 22.218 62.137 61.957 0 47.325 0 94.651 0 141.976 0 3.613 0 7.045 0 11.019-89.954 0-178.645 0-268.238 0 0-25.288 0.181-50.035 0-74.601-0.361-52.022-43.532-95.735-95.373-95.915-71.349-0.181-142.699-0.181-214.048 0-50.757 0.181-94.109 44.255-94.29 95.012 0 21.676 0 43.352 0 65.027 0 3.432-0.361 7.045-0.542 10.657-89.774-0.181-178.283-0.181-267.877-0.181z" />
<glyph unicode="&#xe907;" glyph-name="search" data-tags="search" d="M990.041 129.998l-266.070 265.89c29.262 55.996 44.074 115.965 44.074 180.090 0 105.308-37.391 195.624-111.992 270.947s-165.278 113.075-272.031 113.075-197.43-37.752-272.031-113.075-111.992-166-111.992-272.031c0-106.031 37.391-196.346 111.992-270.947s165.278-111.992 272.031-111.992c63.944 0 124.094 14.631 180.090 44.074l266.070-266.070c22.579-22.579 50.035-33.959 82.007-33.959 30.707 0 57.080 11.019 78.936 33.056 22.037 22.037 33.056 48.409 33.056 78.936v0c-0.181 31.972-11.38 59.247-34.139 82.007zM384.023 255.898c-87.968 0-163.291 31.249-225.97 93.928s-93.928 138.002-93.928 225.97c0 87.968 31.249 163.291 93.928 225.97s138.002 93.928 225.97 93.928 163.291-31.249 225.97-93.928c62.679-62.679 93.928-138.002 93.928-225.97s-31.249-163.291-93.928-225.97c-62.679-62.499-138.002-93.928-225.97-93.928zM384.023 799.96c-10.657 0-16.076-5.419-16.076-16.076s5.419-16.076 16.076-16.076c53.286 0 98.625-18.605 136.016-55.996s55.996-82.729 55.996-136.016c0-10.657 5.419-16.076 16.076-16.076s16.076 5.419 16.076 16.076c0 61.415-22.037 113.978-65.93 158.053-44.255 44.074-96.818 66.111-158.233 66.111z" />
<glyph unicode="&#xe908;" glyph-name="tools" data-tags="tools" d="M1021.291 704.406c-0.903 6.864-5.6 12.464-12.102 14.631s-13.547 0.542-18.424-4.335l-123.733-123.733-180.632 31.43-31.43 180.632 123.552 123.552c4.877 4.877 6.503 11.922 4.335 18.424s-7.767 11.199-14.631 12.102c-92.845 12.644-183.883-17.883-249.813-83.632-77.491-77.491-102.779-187.315-76.407-286.301l-398.834-399.015c-57.621-57.621-57.621-151.369 0-208.991s151.369-57.621 208.991 0l399.015 399.015c98.805-26.372 208.81-1.084 286.301 76.226 65.93 65.93 96.457 156.969 83.813 249.994zM226.693 4.64c-43.532-43.532-114.52-43.532-158.053 0s-43.532 114.52 0 158.053l386.551 386.371c14.451-34.32 35.404-66.653 63.402-94.651s60.331-49.132 94.651-63.402l-386.551-386.371zM912.008 480.062c-101.515-101.515-266.612-101.515-368.127 0-101.334 101.334-101.334 266.431 0.181 367.946 48.771 48.771 113.256 75.504 181.173 76.046l-102.057-102.057c-4.155-4.155-5.961-9.935-5.058-15.715l35.223-202.307c1.264-7.587 7.225-13.367 14.631-14.631l202.307-35.223c5.78-1.084 11.56 0.903 15.715 5.058l102.057 102.057c-0.542-68.098-27.275-132.584-76.046-181.173z" />
<glyph unicode="&#xe909;" glyph-name="users" data-tags="users" d="M0 59.010c1.987 7.406 3.432 14.812 5.78 22.037 10.115 33.056 29.624 59.428 58.886 77.852 39.92 25.108 80.020 50.396 120.301 74.962 13.005 7.948 18.244 18.605 19.147 33.597 1.806 27.637-1.626 51.661-22.579 73.517-19.147 19.869-29.985 46.061-38.294 72.794-1.264 3.974-3.793 7.767-6.503 10.838-11.38 13.186-17.702 27.817-17.521 45.519 0.361 17.341 0.361 34.681 0 52.022-0.361 13.909 4.335 25.83 11.922 37.391 2.709 4.155 4.516 9.573 4.696 14.451 0.723 25.288-1.806 50.938 1.445 75.865 9.573 75.685 61.595 128.61 138.364 142.88 50.216 9.393 99.528 5.78 146.492-15.896 1.084-0.542 2.529-0.903 4.155-1.445 2.168 9.212 3.613 18.244 6.322 27.095 15.715 52.383 52.925 83.452 103.141 99.889 19.147 6.322 39.558 8.49 59.428 12.644 2.89 0.542 5.78 1.264 8.67 1.806 18.605 0 37.391 0 55.996 0 15.354-2.709 30.888-4.696 46.061-8.128 36.668-8.49 69.724-24.385 95.193-53.286 26.011-29.443 35.946-64.666 35.404-103.321-0.361-30.346-0.361-60.692-0.181-91.038 0-3.974 1.806-8.309 3.974-11.741 8.851-13.547 13.367-28.179 13.186-44.255-0.181-20.050 0-39.92 0-59.97-0.181-26.011-11.922-45.7-32.514-60.873-4.155-3.071-8.309-7.767-10.115-12.644-13.728-35.946-31.611-69.543-54.731-100.612-2.89-3.974-4.696-9.573-4.877-14.451-0.542-15.354 0.181-30.707-0.361-46.061-0.542-21.856 9.393-36.126 28.901-45.7 52.383-25.65 104.586-51.299 156.246-78.033 57.441-29.804 86.703-77.852 87.968-142.518 0.361-21.315 0-42.629 0-65.208-341.755 0-682.787 0-1024 0 0 26.733 0 53.286 0 80.020zM271.67 13.852c241.685 0 479.577 0 718.191 0 0 10.657 0 20.773 0 30.707 0 51.661-23.121 89.051-69.362 112.172-52.383 26.192-104.766 52.203-157.149 78.575-27.095 13.547-43.352 35.765-45.88 65.75-1.987 24.205-0.903 48.59-0.723 72.975 0 2.709 1.626 5.78 3.432 7.948 29.262 34.862 49.674 74.601 63.944 117.772 1.264 3.793 5.6 7.948 9.573 9.393 18.244 6.864 25.108 15.354 25.469 34.862 0.361 21.315 0 42.629 0.181 63.944 0 11.199-3.613 20.592-12.283 28.359-2.529 2.348-4.696 6.503-4.696 9.935-0.361 35.043-0.723 69.904 0.181 104.947 1.626 57.441-28.54 102.779-83.632 119.578-57.802 17.702-116.507 17.702-174.309 0-52.383-15.896-85.258-61.415-84.355-112.353 0.542-36.307 1.084-72.614 1.084-108.921 0-4.877-2.709-10.838-6.141-14.451-7.225-7.767-11.199-16.076-11.019-26.733 0.361-21.676 0.181-43.352 0-65.027-0.181-12.644 4.877-22.218 15.173-29.624 3.613-2.709 7.225-7.225 8.128-11.38 7.225-30.707 20.231-58.886 35.043-86.522 8.309-15.715 24.927-27.095 26.914-45.519 1.987-18.063 0.361-36.668 0.361-54.912 0-0.361 0-0.723 0-1.084-0.361-34.501-15.354-60.692-45.7-77.31-48.951-26.733-98.083-53.467-147.034-80.2-28.54-15.534-50.216-37.571-57.621-69.362-5.78-23.482-5.419-48.409-7.767-73.517zM238.253 13.491c0 12.644-0.361 24.385 0.181 35.946 0.361 9.573 0.903 19.328 2.89 28.72 10.477 50.216 38.294 87.426 83.632 111.811 48.59 26.011 96.999 52.744 145.408 79.117 16.076 8.67 24.566 21.676 24.024 40.461-0.361 15.715 0.361 31.43-0.361 46.964-0.181 5.6-2.168 11.741-5.238 16.437-22.94 33.417-40.642 69.362-52.203 108.198-1.264 4.516-3.974 9.032-7.225 12.644-12.102 13.728-19.869 29.082-19.869 47.687-0.181 22.94-0.723 46.061 0.181 69.001 0.361 9.393 1.626 20.411 6.683 27.637 10.477 14.631 9.754 30.346 9.754 46.422-0.181 9.573-1.445 19.508 0.181 28.901 3.613 20.231-6.683 29.082-23.663 35.765-42.81 16.799-86.522 18.605-130.597 8.49-62.86-14.451-101.696-64.847-101.696-129.513 0-22.398-0.181-44.616 0.181-67.014 0.181-6.864-1.445-11.922-7.045-16.437-7.225-5.6-10.296-13.186-10.115-22.76 0.542-17.702 0.542-35.404 0-52.925-0.181-10.657 3.613-18.424 12.464-24.566 3.251-2.168 6.322-6.141 7.225-9.935 9.754-39.92 31.069-73.156 59.428-102.418 2.89-2.89 4.877-7.767 5.058-11.922 0.542-17.341 0.361-34.681 0.181-52.022-0.181-27.095-11.922-48.409-34.501-62.86-39.016-24.927-78.033-49.854-117.772-73.517-46.603-27.817-56.176-69.362-50.216-118.675 67.376 0.361 134.57 0.361 203.030 0.361z" />
<glyph unicode="&#xe90a;" glyph-name="page-list" data-tags="page-list" d="M512.090 425.511l512.090 247.826-512.090 248.007-512.090-247.826 512.090-248.007zM512.090 888.47l444.173-215.132-444.173-214.951-444.354 215.132 444.354 214.951zM791.708 302.14l164.555-79.658-444.173-215.132-444.173 215.132 164.736 79.839-18.605 23.663-214.048-103.502 512.090-247.826 511.91 247.826-213.506 103.502zM791.708 524.317l164.555-79.658-444.173-214.951-444.173 214.951 164.736 79.839-18.605 23.663-214.048-103.502 512.090-247.826 511.91 247.826-213.506 103.502z" />
<glyph unicode="&#xe90b;" glyph-name="arrow-right-bold" data-tags="arrow-right-bold" d="M35.043 412.867h516.245c19.328 0 34.862 15.534 34.862 34.862s-15.534 35.043-34.862 35.043h-516.245c-19.508 0.181-35.043-15.534-35.043-34.862s15.534-35.043 35.043-35.043zM472.893 412.867h516.245c19.328 0 34.862 15.534 34.862 34.862s-15.534 35.043-34.862 35.043h-516.245c-19.508 0-35.043-15.715-35.043-35.043s15.534-34.862 35.043-34.862zM599.335 788.219l365.056-365.056c13.728-13.728 35.765-13.728 49.493 0s13.728 35.765 0 49.493l-365.056 365.056c-13.728 13.728-35.946 13.728-49.493 0-13.728-13.728-13.728-35.765 0-49.493zM648.828 58.288l365.056 365.056c13.728 13.728 13.728 35.765 0 49.493s-35.765 13.728-49.493 0l-365.056-365.056c-13.728-13.728-13.728-35.946 0-49.493s35.765-13.728 49.493 0z" />
<glyph unicode="&#xe90c;" glyph-name="arrow-right" data-tags="arrow-right" d="M689.109 782.8l-26.553-26.553 289.372-289.372h-951.928v-37.752h952.109l-289.552-289.372 26.553-26.733 334.891 334.891z" />
<glyph unicode="&#xe90d;" glyph-name="bell" data-tags="bell" d="M514.98-61.652c-73.698 0-137.461 67.195-157.691 164.555h-336.155c-8.49 0-16.076 5.058-19.328 12.825s-1.626 16.799 4.155 22.94c21.676 22.76 42.268 40.281 60.512 55.815 44.797 38.294 71.891 61.234 71.891 120.842v196.888c0.903 169.613 113.798 320.44 270.405 364.334 7.587 34.501 35.223 81.104 103.321 81.104 67.376 0 95.193-48.229 103.141-83.271 157.511-44.074 270.947-193.998 271.85-361.986v-203.572c0-57.802 24.024-77.31 67.376-112.714 19.147-15.715 40.823-33.236 63.944-57.441 5.78-6.141 7.587-15.173 4.155-22.94-3.251-7.767-11.019-12.825-19.328-12.825h-330.556c-20.231-97.36-83.994-164.555-157.691-164.555zM402.628 95.136c18.966-67.737 63.763-114.701 112.353-114.701s93.386 46.964 112.353 114.701h-224.706zM73.878 144.991h875.702c-7.587 6.503-14.992 12.464-22.037 18.244-46.242 37.752-82.91 67.556-82.91 145.408v203.572c-0.723 153.537-107.114 290.094-253.245 324.595-9.032 2.168-15.534 9.935-16.257 19.147-0.361 5.961-6.322 59.428-63.221 59.428-58.525 0-63.040-51.119-63.221-56.899-0.542-9.393-7.045-17.341-16.257-19.508-145.228-34.32-251.078-171.781-251.8-326.943v-196.888c0-79.117-40.281-113.256-86.703-152.995-6.503-5.419-13.186-11.019-20.050-17.16zM624.624 828.32c-1.987 0-4.155 0.361-6.141 0.903-111.992 34.139-204.294 5.419-205.197 5.238-11.199-3.613-22.94 2.529-26.553 13.728-3.613 11.019 2.529 22.94 13.547 26.553 4.335 1.445 105.308 33.056 230.486-5.058 11.199-3.432 17.341-15.173 14.089-26.372-2.89-9.212-11.199-14.992-20.231-14.992z" />
<glyph unicode="&#xe90e;" glyph-name="calendar" data-tags="calendar" d="M909.66 877.993v82.007h-37.21v-82.007h-133.667v82.007h-37.21v-82.007h-149.202v82.007h-37.21v-82.007h-154.801v82.007h-37.029v-82.007h-148.66v82.007h-37.029v-82.007h-132.403v-941.993h1013.523v941.993h-109.101zM985.164-30.403h-946.148v665.085h946.148v-665.085zM985.164 668.461h-946.148v175.754h98.625v-85.439h37.21v85.439h148.479v-85.439h37.21v85.439h154.801v-85.439h37.21v85.439h149.202v-85.439h37.029v85.439h133.667v-85.439h37.21v85.439h75.504v-175.754zM724.874 458.025c-7.406 7.406-19.328 7.406-26.733 0l-242.949-242.949-91.761 91.761c-7.406 7.406-19.328 7.406-26.733 0s-7.406-19.328 0-26.733l105.128-105.128c3.793-3.793 8.67-5.6 13.367-5.6 0 0 0 0 0.181 0 0.542 0 1.264 0 1.806 0.181h0.181c0.542 0.181 1.084 0.181 1.626 0.181 0.181 0 0.181 0.181 0.361 0.181 0.542 0.181 0.903 0.181 1.445 0.361 0.181 0 0.361 0.181 0.542 0.181 0.361 0.181 0.723 0.361 1.264 0.361 0.181 0.181 0.361 0.181 0.542 0.361 0.361 0.181 0.723 0.361 1.084 0.542s0.542 0.361 0.723 0.542c0.361 0.181 0.542 0.361 0.723 0.542 0.361 0.181 0.542 0.361 0.723 0.542s0.542 0.361 0.723 0.542 0.903 0.723 1.445 1.264l256.316 256.316c7.587 7.225 7.587 19.147 0 26.553z" />
<glyph unicode="&#xe90f;" glyph-name="close" data-tags="close" d="M628.417 447.91l371.559 371.378c32.152 32.152 32.152 84.355 0 116.688-32.152 32.152-84.355 31.972-116.507-0.181l-371.559-371.378-371.378 371.378c-32.152 32.152-84.174 32.152-116.327 0s-32.152-84.355 0-116.507l371.378-371.378-371.378-371.378c-32.333-32.152-32.333-84.355-0.181-116.507s84.355-32.333 116.507 0l371.378 371.378 371.378-371.198c32.152-32.152 84.536-32.152 116.507-0.181 32.152 32.333 32.152 84.355 0 116.688l-371.378 371.198z" />
<glyph unicode="&#xe910;" glyph-name="company2" data-tags="company" d="M525.276-64h-525.276v1024h525.276v-1024zM26.372-37.628h472.351v971.256h-472.351v-971.256zM115.965 843.854h99.709v-99.709h-99.709v99.709zM309.602 843.854h99.709v-99.709h-99.709v99.709zM115.965 650.217h99.709v-99.709h-99.709v99.709zM309.602 650.217h99.709v-99.709h-99.709v99.709zM115.965 456.761h99.709v-99.709h-99.709v99.709zM309.602 456.761h99.709v-99.709h-99.709v99.709zM115.965 263.124h99.709v-99.709h-99.709v99.709zM309.602 263.124h99.709v-99.709h-99.709v99.709zM1024-64h-525.096v821.331h525.276l-0.181-821.331zM525.276-37.628h472.351v768.587h-472.351v-768.587zM614.689 650.217h99.709v-99.709h-99.709v99.709zM808.326 650.217h99.709v-99.709h-99.709v99.709zM614.689 456.761h99.709v-99.709h-99.709v99.709zM808.326 456.761h99.709v-99.709h-99.709v99.709zM614.689 263.124h99.709v-99.709h-99.709v99.709zM808.326 263.124h99.709v-99.709h-99.709v99.709z" />
<glyph unicode="&#xe911;" glyph-name="delete" data-tags="delete" d="M512.090 960c-282.327 0-512.090-229.763-512.090-512.090s229.763-512.090 512.090-512.090c282.327 0 512.090 229.763 512.090 512.090-0.181 282.327-229.763 512.090-512.090 512.090zM713.856 294.373c13.367-13.367 13.367-34.862 0-48.229s-34.862-13.186-48.229 0l-153.537 153.537-153.537-153.537c-13.367-13.367-34.862-13.367-48.229 0s-13.367 34.862 0 48.229l153.537 153.537-153.717 153.717c-13.367 13.367-13.186 34.862 0 48.229 13.367 13.367 34.862 13.367 48.229 0l153.717-153.717 153.717 153.717c13.367 13.367 34.862 13.367 48.229 0s13.367-34.862 0-48.229l-153.717-153.717 153.537-153.537z" />
<glyph unicode="&#xe912;" glyph-name="folder" data-tags="folder" d="M913.815 82.312h-913.815v731.196l279.076-0.181 66.111-161.123h568.628v-569.892zM44.074 126.386h825.847v481.744h-554.358l-66.111 161.123-205.378 0.181v-643.048zM913.454 125.121l-43.352 7.948 105.489 570.073h-668.698v44.074h695.070c6.503 0 12.644-2.89 16.799-7.948s5.961-11.56 4.696-18.063l-110.005-596.084z" />
<glyph unicode="&#xe913;" glyph-name="home" data-tags="home" d="M1017.859 422.802l-110.366 100.070v238.434c0 10.296-8.309 18.605-18.605 18.605h-97.18c-4.877 0-9.754-1.987-13.186-5.419s-5.419-8.309-5.419-13.186l0.181-117.049-240.782 218.203c-7.045 6.322-17.702 6.503-24.747 0.181l-501.433-441.825c-6.322-5.6-8.128-14.812-4.335-22.398s12.283-11.56 20.592-9.754l111.45 25.108v-343.742c-0.181-3.071-0.181-18.424 11.019-30.165 5.058-5.058 13.909-11.199 28.179-11.199 26.733 0 248.73 0.361 248.73 0.361 10.296 0 18.605 8.309 18.605 18.605l0.361 205.559c-0.181 2.348 0.181 8.49 2.709 11.199 1.626 1.806 5.238 2.168 7.948 2.168h103.321c4.696 0 10.838-0.723 14.089-4.155 3.613-3.613 3.432-9.935 3.432-11.019l-0.542-203.21c0-4.877 1.987-9.573 5.419-13.186 3.432-3.432 8.309-5.419 13.186-5.419h243.491c16.618 0 26.733 7.045 32.333 12.825 13.005 13.547 12.464 31.972 12.464 33.236v343.922l122.288-28.54c8.309-1.987 16.799 1.987 20.773 9.393s2.348 16.618-3.974 22.398zM810.313 742.7h59.97v-186.231l-59.608 54.009-0.361 132.222zM864.502 461.096c-5.419 1.264-11.38 0-15.715-3.613-4.516-3.432-7.045-8.851-7.045-14.631v-367.766c0-1.987-0.723-5.6-2.168-7.045-1.084-1.084-3.793-1.264-5.419-1.264h-224.886l0.361 183.341c0.181 2.168 1.084 22.218-13.186 37.571-6.864 7.225-19.508 16.076-41.545 16.076h-103.321c-18.605 0-29.624-7.948-35.584-14.451-12.825-14.089-12.464-33.056-12.283-38.475l-0.361-184.605c-54.009 0-208.087-0.181-230.125-0.181-0.723 0-1.084 0-1.445 0 0 0-0.181 0-0.181 0-0.361 0.723-0.542 2.168-0.542 3.432v367.766c0 5.6-2.529 11.019-7.045 14.631-4.516 3.432-10.296 4.877-15.715 3.613l-63.040-14.27 434.599 382.397 253.607-229.583v-1.084h1.264l164.917-149.382-75.143 17.521z" />
<glyph unicode="&#xe914;" glyph-name="info" data-tags="info" d="M512.090 960c-282.327 0-512.090-229.763-512.090-512.090s229.763-512.090 512.090-512.090c282.327 0 512.090 229.763 512.090 512.090-0.181 282.327-229.763 512.090-512.090 512.090zM512.090-18.12c-257.039 0-466.029 208.991-466.029 466.029s209.171 466.029 466.029 466.029c257.039 0 466.029-208.991 466.029-466.029 0-256.858-209.171-466.029-466.029-466.029zM508.658 614.994c-18.966 0-34.501-15.354-34.501-34.501v-389.080c0-19.147 15.534-34.501 34.501-34.501 19.147 0 34.501 15.534 34.501 34.501v389.080c0 19.147-15.354 34.501-34.501 34.501zM510.826 752.454c-23.121 0-41.907-18.786-41.907-41.907s18.786-41.907 41.907-41.907c23.121 0 41.907 18.786 41.907 41.907s-18.786 41.907-41.907 41.907z" />
<glyph unicode="&#xe915;" glyph-name="key" data-tags="key" d="M152.995 405.823c-87.426-87.426-87.426-229.583 0-317.008s229.583-87.426 317.008 0l7.587 7.406-317.189 317.189-7.406-7.587zM447.244 96.581c-79.658-71.711-202.669-69.182-279.256 7.406s-79.117 199.598-7.406 279.256l286.662-286.662zM1016.775 954.762c-4.696 4.155-11.019 5.961-17.16 5.058l-159.678-24.205c-4.516-0.723-8.67-2.709-11.741-5.961l-408.408-408.588c-110.185 45.158-241.504 23.121-330.736-66.111-118.494-118.494-118.494-311.589 0-430.084s311.589-118.494 430.084 0c82.007 82.007 107.295 199.598 75.685 303.461l164.194 164.194c5.419 5.238 7.406 13.005 5.6 20.411l-22.94 87.426 88.509-22.037c7.225-1.806 14.812 0.361 20.050 5.6l38.655 38.655c5.058 5.058 7.225 12.464 5.78 19.508l-11.019 49.854 61.234-3.432c5.961-0.361 11.922 1.987 16.257 6.141l52.925 52.925c3.793 3.793 6.141 9.032 6.141 14.631l3.793 176.116c0.181 6.322-2.529 12.283-7.225 16.437zM488.969 54.856c-102.057-102.057-268.057-102.057-370.114 0s-102.057 268.057 0 370.114c102.057 102.057 268.057 102.057 369.933 0 26.914-26.914 46.603-58.344 59.247-91.761 0-4.335 1.626-8.49 4.335-12.102 29.443-90.858 8.49-194.359-63.402-266.251zM977.939 771.601l-40.1-40.1-79.839 4.516c-6.683 0.361-13.186-2.348-17.341-7.406-4.335-5.058-5.961-11.922-4.516-18.424l14.631-65.75-21.856-21.856-111.811 27.456c-7.225 1.806-14.812-0.361-20.050-5.6 0 0 0 0 0 0-5.238-5.238-7.406-13.005-5.419-20.231l28.901-110.185-142.518-142.518c-14.451 30.165-33.778 58.525-58.886 83.452-18.244 18.244-38.294 33.236-59.428 45.88l393.777 393.777 127.706 19.328-3.251-142.338z" />
<glyph unicode="&#xe916;" glyph-name="logout" data-tags="logout" d="M98.805 910.507v-394.68h22.218v372.643h880.94v-880.94h-880.94v372.643h-22.218v-394.86h925.195v925.195zM203.21 430.388h258.845c9.754 0 17.521 7.767 17.521 17.521s-7.767 17.521-17.521 17.521h-258.845c-9.754 0-17.521-7.948-17.521-17.521s7.767-17.521 17.521-17.521zM422.678 430.388h258.845c9.754 0 17.521 7.767 17.521 17.521s-7.767 17.521-17.521 17.521h-258.845c-9.754 0-17.521-7.948-17.521-17.521s7.767-17.521 17.521-17.521zM486.079 618.606l182.98-182.98c6.864-6.864 17.883-6.864 24.747 0s6.864 17.883 0 24.747l-182.799 182.98c-6.864 6.864-18.063 6.864-24.927 0s-6.864-17.883 0-24.747zM510.826 252.647l182.98 182.98c6.864 6.864 6.864 17.883 0 24.747s-17.883 6.864-24.747 0l-182.98-182.98c-6.864-6.864-6.864-18.063 0-24.927s17.883-6.864 24.747 0.181zM17.521 430.388h258.845c9.754 0 17.521 7.767 17.521 17.521s-7.767 17.521-17.521 17.521h-258.845c-9.754 0-17.521-7.948-17.521-17.521s7.767-17.521 17.521-17.521z" />
<glyph unicode="&#xe917;" glyph-name="mail" data-tags="mail" d="M0 771.24v-646.661h1024v646.661h-1024zM980.829 728.069v-31.972l-468.739-329.833-468.739 329.652v31.972h937.478zM43.352 167.931v475.061l456.275-320.982c3.793-2.709 8.128-3.974 12.464-3.974s8.67 1.264 12.464 3.974l456.275 320.982v-475.061h-937.478z" />
<glyph unicode="&#xe918;" glyph-name="minus" data-tags="minus" d="M962.766 509.144h-901.712c-33.778 0-61.053-27.275-61.053-61.053s27.275-61.234 61.053-61.234h901.712c33.959 0 61.234 27.456 61.234 61.234s-27.275 61.053-61.234 61.053z" />
<glyph unicode="&#xe919;" glyph-name="money" data-tags="money" d="M664.543 807.547c-23.843 0-47.687-2.709-70.627-7.225-23.301 4.696-47.506 7.225-72.072 7.225-26.553 0-52.744-2.89-78.033-8.49l0.361-1.987c-27.095 6.503-55.454 10.477-84.536 10.477-198.333 0-359.637-161.304-359.637-359.637 0-198.153 161.304-359.457 359.637-359.457 27.817 0 54.731 3.432 80.562 9.393 26.553-6.141 54.009-9.393 81.465-9.393 24.927 0 49.132 2.529 72.614 7.406 22.94-4.516 46.422-7.406 70.085-7.406 198.333 0 359.637 161.304 359.637 359.457 0 198.333-161.304 359.637-359.457 359.637zM34.681 447.91c0 179.186 145.77 324.956 324.956 324.956s324.956-145.77 324.956-324.956c0-179.186-145.77-324.956-324.956-324.956s-324.956 145.77-324.956 324.956zM513.535 123.496c121.384 57.802 205.559 181.354 205.559 324.414 0 143.241-84.355 266.793-205.739 324.414 2.709 0 5.419 0.542 8.309 0.542 179.186 0 324.956-145.77 324.956-324.956 0-154.621-108.74-284.133-253.607-316.828-1.626 0.361-3.071 0.361-4.696 0.723l-0.542-2.168c-21.315-4.335-43.532-6.683-66.111-6.683-2.709 0-5.419 0.361-8.128 0.542zM675.742 123.676c121.204 57.802 205.378 181.354 205.378 324.234 0 143.060-84.174 266.612-205.378 324.414 173.948-6.141 313.576-149.021 313.576-324.414s-139.628-318.273-313.576-324.234zM357.831 473.198c-47.687 20.231-64.485 34.501-64.485 62.318 0 22.398 12.283 47.687 54.551 47.687 35.043 0 57.441-12.644 69.001-19.147l13.728 36.126c-16.437 9.212-38.836 18.063-71.169 19.147v53.286h-34.501v-54.731c-49.854-8.309-82.007-42.81-82.007-88.148 0-47.687 34.501-73.336 90.316-95.193 40.461-16.437 58.344-35.043 58.344-65.208 0-31.249-22.76-53.648-61.595-53.648-30.707 0-59.247 10.838-78.394 23.482l-13.186-36.668c19.147-13.728 51.48-23.482 83.090-24.205v-54.731h34.501v56.899c56.357 8.851 86.522 49.312 86.522 93.025 0.181 48.771-28.359 76.588-84.716 99.709z" />
<glyph unicode="&#xe91a;" glyph-name="off" data-tags="off" d="M484.634-64c-18.063 2.529-36.307 4.516-54.189 7.767-105.669 19.508-193.998 70.085-264.625 151.008-64.124 73.517-100.070 159.317-110.727 256.316-19.147 173.587 74.059 355.302 227.054 441.825 24.205 13.728 52.564 6.864 66.292-16.076 13.909-23.301 6.864-52.203-17.702-66.653-60.331-35.765-107.295-84.174-139.809-146.131-114.34-217.842 16.437-483.37 259.026-526.36 197.972-35.043 387.635 98.986 420.871 297.861 24.205 144.866-41.726 290.817-166.362 368.488-3.974 2.529-7.948 4.696-11.922 7.225-22.76 14.631-29.624 42.99-15.896 65.569 13.547 22.579 41.907 29.985 65.389 16.437 62.499-36.126 113.978-84.355 153.537-144.686 58.525-89.593 85.619-188.037 74.24-294.429-18.424-171.6-107.114-296.416-261.193-373.907-50.216-25.288-104.044-38.655-160.22-42.629-2.529-0.181-5.238-1.084-7.767-1.626-18.786 0-37.391 0-55.996 0zM464.584 665.029c0 82.007 0 164.013 0 246.020 0 22.398 13.547 40.642 33.778 46.964 31.069 9.573 61.957-13.005 62.137-45.88 0.361-62.318 0.181-124.636 0.181-186.954 0-102.599 0-205.378 0-307.977 0-21.856-13.186-40.1-32.694-46.603-20.050-6.503-42.81-0.181-53.828 17.883-5.6 9.032-9.032 21.134-9.032 31.791-0.903 81.284-0.542 163.11-0.542 244.756 0 0 0 0 0 0z" />
<glyph unicode="&#xe91b;" glyph-name="ok-old" data-tags="ok-old" d="M848.246 706.935l-477.048-477.048-195.263 195.263-20.411-20.411 215.674-215.674 497.279 497.459zM512.090 960c-282.327 0-512.090-229.763-512.090-512.090s229.763-512.090 512.090-512.090 511.91 229.763 511.91 512.090c0 282.327-229.583 512.090-511.91 512.090zM512.090-39.795c-268.96 0-487.886 218.745-487.886 487.705s218.925 487.886 487.886 487.886c268.96 0 487.886-218.925 487.886-487.886-0.181-268.96-218.925-487.705-487.886-487.705z" />
<glyph unicode="&#xe91c;" glyph-name="ok" data-tags="ok" d="M512.090 960c-282.327 0-512.090-229.763-512.090-512.090s229.763-512.090 512.090-512.090 512.090 229.763 512.090 512.090c-0.181 282.327-229.763 512.090-512.090 512.090zM512.090-18.12c-257.039 0-466.029 208.991-466.029 466.029s209.171 466.029 466.029 466.029c257.039 0 466.029-208.991 466.029-466.029 0-256.858-209.171-466.029-466.029-466.029zM862.335 699.71c-13.367 13.367-35.223 13.547-48.771 0l-442.005-442.186-166.904 166.904c-13.547 13.547-35.223 13.547-48.771 0-13.367-13.367-13.547-35.223 0-48.771l191.289-191.289c6.864-6.864 15.715-10.115 24.385-10.115 0 0 0 0 0.181 0 1.084 0 2.168 0 3.251 0.181h0.181c1.084 0.181 1.987 0.181 3.071 0.361 0.181 0 0.361 0.181 0.542 0.181 0.903 0.181 1.806 0.361 2.529 0.723 0.361 0 0.542 0.181 0.903 0.361 0.723 0.181 1.445 0.542 2.348 0.723 0.361 0.181 0.723 0.361 1.084 0.542 0.723 0.361 1.264 0.542 1.987 0.903 0.542 0.181 0.903 0.542 1.445 0.903s1.084 0.542 1.445 0.903c0.542 0.361 1.084 0.723 1.445 1.084s0.903 0.542 1.264 0.903c0.903 0.723 1.806 1.445 2.529 2.348l466.391 466.391c13.728 13.547 13.728 35.404 0.181 48.951z" />
<glyph unicode="&#xe91d;" glyph-name="orders" data-tags="orders" d="M576.034 660.694l-16.257 16.257-118.314-118.133v337.6h-23.121v-337.6l-118.133 118.133-16.437-16.257 146.131-146.312zM870.644 791.471l-134.751-134.932h-123.010l1.806-1.806-32.694-32.694h143.602l-98.625-320.621h-343.38l-93.025 136.196h367.404v34.501h-125.9l-0.361-0.181-0.361 0.181h-264.264l-101.696 149.924h216.216l-32.694 32.694 1.806 1.806h-250.717l140.712-207.184 124.636-182.618h350.967l-36.126-117.41h-285.398v-0.542c-38.655-2.89-69.182-34.862-69.182-74.24 0-41.365 33.597-74.962 74.962-74.962s74.962 33.597 74.962 74.962c0 14.812-4.516 28.72-11.922 40.281h124.997c-7.406-11.56-11.922-25.469-11.922-40.281 0-41.365 33.597-74.962 74.962-74.962s74.962 33.597 74.962 74.962c0 18.605-7.045 35.223-18.244 48.409l158.594 515.884 117.952 117.952h139.086v34.681h-153.356zM300.571 34.264c-22.218 0-40.281 18.063-40.281 40.281s18.063 40.281 40.281 40.281c22.218 0 40.281-18.063 40.281-40.281s-18.063-40.281-40.281-40.281zM551.468 34.264c-22.218 0-40.281 18.063-40.281 40.281s18.063 40.281 40.281 40.281c22.218 0 40.461-18.063 40.461-40.281-0.181-22.218-18.244-40.281-40.461-40.281z" />
<glyph unicode="&#xe91e;" glyph-name="pay-braintree" data-tags="pay-braintree" d="M693.986 117.896c0-100.458-81.438-181.896-181.896-181.896s-181.896 81.438-181.896 181.896c0 100.458 81.438 181.896 181.896 181.896s181.896-81.438 181.896-181.896zM693.986 778.104c0-100.458-81.438-181.896-181.896-181.896s-181.896 81.438-181.896 181.896c0 100.458 81.438 181.896 181.896 181.896s181.896-81.438 181.896-181.896zM1024 447.91c0-100.458-81.438-181.896-181.896-181.896s-181.896 81.438-181.896 181.896c0 100.458 81.438 181.896 181.896 181.896s181.896-81.438 181.896-181.896zM363.792 447.91c0-100.458-81.438-181.896-181.896-181.896s-181.896 81.438-181.896 181.896c0 100.458 81.438 181.896 181.896 181.896s181.896-81.438 181.896-181.896z" />
<glyph unicode="&#xe91f;" glyph-name="pay-cb" data-tags="pay-cb" d="M1022.374 779.73c-1.987 83.452-62.499 153.717-143.421 174.671-5.419 1.445-11.922 0-15.896 5.6-235.363 0-470.545 0-705.908 0-15.534-5.058-33.056-1.806-47.506-9.212-55.996-28.901-100.25-67.556-106.934-135.835-0.361-3.974 0.181-8.49-2.709-12.283 0-236.266 0-472.713 0-708.979 5.058-2.709 4.335-8.309 5.6-12.644 23.121-84.355 94.109-142.699 180.993-144.144 108.56-1.626 217.119-0.723 325.498-0.361 28.72 0.181 53.286 11.56 70.988 34.681 22.76 29.804 26.733 62.679 10.477 96.457-17.702 36.668-49.132 51.299-88.69 52.022-194.54 3.793-343.019 175.213-319.357 368.488 16.076 131.138 109.282 240.601 235.724 276.005 129.152 36.307 265.528-7.587 348.077-112.172 47.687-60.512 69.724-129.874 71.711-206.642 1.264-51.119 41.545-88.69 91.219-88.69 48.59 0 90.316 37.933 90.858 87.606 1.084 111.992 1.806 223.802-0.723 335.433zM512.632 668.28c-121.926 0.542-220.19-96.096-221.093-217.48-0.903-122.288 96.457-221.996 217.842-222.357 121.746-0.361 221.274 96.818 222.177 216.938 0.723 123.733-95.915 222.357-218.925 222.899zM770.574 272.336c-52.925-0.723-93.928-42.268-93.928-95.193-0.181-53.467 41.907-95.735 95.193-95.735 51.661 0 94.651 43.352 94.47 95.373-0.181 53.286-43.171 96.277-95.735 95.554zM915.621 100.013c-37.933-0.181-68.279-30.707-68.098-68.459 0.361-37.752 31.249-67.556 69.362-67.014 37.21 0.542 67.195 30.527 67.376 67.556 0.181 37.571-30.527 68.098-68.64 67.917z" />
<glyph unicode="&#xe920;" glyph-name="pay-limelight" data-tags="pay-limelight" d="M736.073 277.394c-33.778 4.516-54.731 22.94-54.009 57.080 0.723 34.501 23.121 52.925 57.26 51.48 31.069-1.445 50.396-20.050 50.577-51.841 0.181-34.501-20.773-52.203-53.828-56.718zM622.456 272.336c32.514-3.432 51.841-22.218 52.203-53.286 0.361-34.501-20.592-55.635-55.454-54.551-31.249 0.903-51.661 20.231-51.661 52.203-0.181 34.862 20.773 53.106 54.912 55.635zM853.303 392.998c-36.126 5.78-58.525 23.121-56.899 57.441 1.626 34.139 24.024 52.203 58.163 50.216 31.43-1.806 49.854-21.315 50.035-52.383 0.361-34.501-21.315-51.299-51.299-55.273zM676.284 448.271c-4.516-33.597-23.843-53.648-57.621-53.828-31.972 0-50.396 21.134-50.757 52.022-0.361 34.681 21.134 54.009 55.635 53.286 31.791-0.542 48.59-20.050 52.744-51.48zM734.448 617.703c35.223-4.516 56.718-22.398 55.273-57.621-1.264-31.972-22.579-51.119-53.467-50.757-34.32 0.361-55.273 21.676-54.009 56.718 0.903 31.972 22.76 47.506 52.203 51.661zM676.104 679.118c-2.709-30.888-18.605-50.757-50.757-52.383-34.862-1.626-56.718 16.437-56.899 51.841-0.181 32.514 20.050 49.854 52.203 49.854 31.611 0 50.216-17.16 55.454-49.312zM508.116 49.617c-29.985 6.141-50.216 23.843-49.493 55.454s21.134 51.119 52.744 50.938c33.056-0.181 49.493-23.482 49.132-54.009-0.361-31.249-19.869-49.132-52.383-52.383zM561.583 331.402c-4.155-31.069-20.050-53.286-52.203-52.383-32.333 0.723-49.132 24.385-49.312 54.731-0.361 31.611 17.521 52.203 50.757 51.299 33.056-0.723 46.603-23.482 50.757-53.648zM508.116 848.912c32.333-6.503 52.383-24.205 52.022-55.454-0.361-30.527-17.521-52.383-50.577-52.383s-50.216 21.134-49.493 52.383c0.542 30.527 18.786 49.674 48.048 55.454zM562.125 562.972c-3.974-30.707-19.869-51.841-51.299-52.925-32.514-1.084-50.035 20.773-50.938 51.299-0.903 31.43 16.799 51.661 49.493 51.841 31.972 0.361 48.59-18.966 52.744-50.216zM402.808 269.988c29.443-2.348 45.339-19.508 47.506-47.506 2.348-30.346-9.573-55.815-42.81-56.538-29.804-0.723-42.087 22.94-43.532 50.396-1.264 27.456 7.406 48.951 38.836 53.648zM451.579 909.965c-3.432-31.069-16.618-52.203-45.88-53.106-31.611-0.903-42.448 22.218-41.726 49.854 0.903 29.985 12.283 55.093 46.784 53.106 30.707-1.626 38.475-26.372 40.823-49.854zM451.759 678.034c-2.89-31.43-15.715-51.119-46.603-49.674-31.249 1.445-41.907 23.121-41.003 51.119 0.903 28.901 14.992 47.867 45.7 46.603 31.43-1.445 40.281-23.843 41.907-48.048zM408.408 394.443c-31.972 2.709-46.422 21.134-47.687 49.674-1.264 30.527 10.115 55.996 44.435 56.176 33.959 0.361 46.784-24.747 46.784-55.093-0.181-28.54-15.534-46.603-43.532-50.757zM410.214-64c-32.333 5.419-45.88 24.566-45.7 52.925 0.181 27.998 12.644 51.299 42.99 51.299s42.99-23.121 43.352-51.119c0.361-28.72-14.451-46.784-40.642-53.106zM351.87 102c-3.071-25.469-5.78-51.48-37.21-48.771-27.275 2.348-37.21 25.108-36.849 49.674 0.361 27.095 11.38 52.022 42.81 49.854 29.443-2.348 29.082-29.985 31.249-50.757zM353.857 328.874c-3.071-24.747-10.296-50.035-38.836-48.409-34.862 1.987-41.184 31.43-39.016 60.15 1.987 24.385 13.186 47.687 41.907 44.616 31.791-3.432 35.223-30.707 35.946-56.357zM353.857 564.959c-1.626-26.733-6.322-54.009-38.475-54.37-31.791-0.361-39.378 26.553-39.558 52.925-0.181 24.024 7.948 48.229 35.584 50.577 33.056 2.709 39.739-23.121 42.448-49.132zM315.383 743.784c-28.179 3.974-37.752 24.024-36.849 48.771 0.903 23.301 6.864 49.674 35.404 50.577 29.262 0.903 35.765-24.566 36.668-48.59 0.903-24.566-5.238-46.061-35.223-50.757zM207.365 442.31c4.516 25.83-1.626 56.538 30.165 57.080 32.875 0.542 36.668-28.72 36.488-54.009-0.361-23.121-5.6-49.674-35.043-48.951-29.624 0.903-32.333 26.553-31.611 45.88zM211.158 219.591c-1.264 23.843-2.168 52.383 30.346 50.216 27.817-1.806 32.875-29.624 32.514-53.467-0.542-23.843-6.322-51.48-35.584-50.216-31.611 1.445-29.082 29.804-27.275 53.467zM240.059 730.237c28.359-6.864 34.501-28.72 33.778-52.744-0.542-23.482-5.058-50.396-34.681-50.396-30.888 0-31.611 28.54-32.514 51.299-0.903 23.843 3.974 46.242 33.417 51.841zM203.572 333.028c-3.974-19.328 1.806-48.59-24.927-49.674-26.553-1.084-27.275 27.275-27.456 47.145 0 21.676-1.987 53.106 27.998 52.383 25.108-0.542 20.773-30.527 24.385-49.854zM150.285 564.778c4.516 19.147 0.723 48.771 28.72 46.964 26.372-1.806 23.663-30.888 23.121-50.577-0.542-19.147 2.709-48.951-26.192-46.964-25.65 1.806-22.218 30.527-25.65 50.577zM134.57 387.94c-20.592 45.7-19.869 76.226-1.084 120.662 21.315-43.352 21.134-74.059 1.084-120.662z" />
<glyph unicode="&#xe921;" glyph-name="pay-pp" data-tags="pay-pp" d="M167.987 48.172c39.739 0.361 64.485 19.508 73.517 57.802 14.089 59.067 27.456 118.494 41.365 177.741 9.935 42.448 33.417 61.053 76.949 61.776 30.707 0.542 61.595 0.542 92.303 2.348 96.457 5.6 190.205 22.218 276.005 69.724 121.746 67.376 188.399 167.807 181.354 310.506-3.613 71.711-30.707 131.319-92.303 171.961-57.802 38.294-123.552 52.564-190.928 54.551-123.010 3.793-246.201 3.613-369.391 4.335-34.681 0.181-60.331-21.856-68.459-56.718-62.318-266.973-124.455-533.766-186.592-800.739-7.406-31.972 8.309-52.383 40.823-53.286 21.856-0.542 43.713-0.181 65.75-0.181 0 0 0 0 0 0 19.869 0.181 39.739 0 59.608 0.181zM348.98 570.92c12.283 54.009 25.288 107.656 37.933 161.665 0.542 2.709 1.084 5.419 1.987 7.948 9.212 27.095 27.817 46.784 55.996 47.145 44.074 0.361 89.232-0.361 132.222-9.032 55.815-11.38 77.852-46.242 75.685-102.779-2.89-78.213-53.828-133.306-141.796-151.008-29.262-5.961-43.171-9.032-73.878-9.032h-44.435c-34.862 0.542-51.48 20.773-43.713 55.093zM1012.078 665.571c-14.631 49.674-45.339 86.884-92.483 114.34 0.723-5.238 0.723-7.225 1.264-8.851 37.391-106.573 24.927-206.281-44.435-296.236-51.48-66.834-122.468-105.85-201.404-131.319-91.038-29.443-184.967-34.862-279.618-34.32-42.448 0.361-66.292-19.328-75.865-60.15-13.547-57.802-27.095-115.785-40.823-173.587-9.032-37.933-32.694-57.080-71.349-57.621-25.83-0.361-51.841 0-79.297 0-1.806-7.948-3.071-13.367-4.155-18.605-9.032-44.977 4.516-61.776 50.035-61.776 37.029 0 73.878 0 110.908 0.181 42.81 0.181 66.292 18.244 76.226 59.428 13.909 57.802 27.095 115.785 40.823 173.587 9.212 39.016 33.417 57.802 72.975 58.705 40.281 0.903 80.742 1.084 121.023 4.155 102.057 8.128 199.417 31.972 286.12 89.954 114.701 76.588 167.626 214.229 130.055 342.116z" />
<glyph unicode="&#xe922;" glyph-name="pay-stripe" data-tags="pay-stripe" d="M580.55 215.979c9.032 29.082-0.903 51.841-23.301 70.266-26.553 21.676-57.802 34.32-89.232 46.422-53.286 20.411-107.295 39.378-157.149 67.917-55.454 31.791-101.334 72.614-128.61 132.042-14.992 31.972-18.605 66.111-20.773 100.431-5.78 92.122 19.869 173.587 87.245 238.434 47.687 45.88 108.018 68.821 172.142 79.297 138.364 22.579 272.031 3.251 400.279-53.286 3.613-1.445 7.225-2.89 10.838-4.516-11.741-72.433-24.024-144.866-34.681-217.3-2.348-15.896-7.045-15.715-19.147-9.935-54.009 26.011-110.185 45.519-169.252 55.635-38.113 6.503-76.768 12.283-114.701 1.264-44.255-12.644-54.731-58.525-21.676-90.316 3.432-3.251 7.225-6.503 11.019-9.212 33.959-23.301 71.53-38.655 110.185-51.661 34.862-15.534 71.53-27.275 105.669-44.616 58.344-29.262 110.005-66.111 143.602-123.913 26.914-46.061 35.043-96.457 34.501-148.84-0.181-11.38-0.542-22.76-0.723-34.32-0.361-4.696-0.723-9.573-0.903-14.27-2.709-4.516-3.432-9.393-2.709-14.631-7.587-31.972-15.715-63.944-31.791-93.025-44.255-80.2-114.701-124.997-201.585-145.589-134.209-31.611-265.709-14.992-395.041 26.733-31.611 10.115-61.957 23.482-91.219 38.475-12.644 6.503-4.155 18.966-3.071 27.275 5.6 42.81 13.186 85.439 20.411 128.068 4.335 25.469 9.573 50.757 13.728 76.226 1.626 10.115 6.503 5.78 11.199 3.432 20.231-10.115 39.378-22.579 61.595-28.901 18.966-10.477 39.739-16.979 60.15-23.482 61.595-19.328 123.552-36.307 189.121-31.069 32.152 2.89 60.692 13.005 73.878 46.964z" />
<glyph unicode="&#xe923;" glyph-name="pin" data-tags="pin" d="M1018.942 543.102l-411.479 411.479c-6.864 6.864-17.883 6.683-24.566 0 0 0 0 0 0 0l-213.145-213.145c-0.181-0.181-0.181-0.181-0.361-0.361l-142.699-142.699c-43.171-43.171-75.685-44.074-129.513-45.7-21.856-0.723-46.603-1.445-75.685-5.058-7.948-1.084-15.354-6.683-18.966-14.27-3.793-7.587-2.89-15.715 1.987-20.592l270.586-270.586-265.167-264.986c-8.49-8.49-8.49-22.218 0-30.707s22.218-8.49 30.707 0l264.986 264.986 270.767-270.767c4.877-4.877 13.005-5.78 20.592-1.987 7.587 3.613 13.186 11.199 14.089 18.966 3.974 31.069 4.155 56.538 4.335 78.936 0.361 50.938 0.542 79.117 42.448 120.842l361.082 361.082c6.864 6.683 6.864 17.702 0 24.566zM904.964 453.69c0 0 0 0 0 0l-123.733-123.552c-0.181-0.181-0.361-0.361-0.542-0.542l-147.576-147.576c-56.357-56.357-56.718-99.347-57.080-153.717 0-8.309-0.181-16.979-0.361-26.011l-509.923 510.284c8.309 0.361 16.437 0.542 24.024 0.723 55.815 1.626 104.044 3.071 161.304 60.331l142.699 142.699c0.723 0.723 1.445 1.264 2.168 1.987l123.733 123.733c-0.181 0-0.361-0.181-0.361-0.181l75.865 75.865 386.913-386.913-77.13-77.13z" />
<glyph unicode="&#xe924;" glyph-name="plus" data-tags="plus" d="M962.766 509.144h-389.622v389.803c0 33.778-27.275 61.053-61.234 61.053-33.778 0-61.053-27.275-61.053-61.053v-389.803h-389.803c-33.778 0-61.053-27.275-61.053-61.053s27.275-61.234 61.053-61.234h389.622v-389.622c0-33.778 27.456-61.234 61.053-61.234 33.778 0 61.234 27.275 61.234 61.234v389.622h389.803c33.778 0 61.234 27.275 61.234 61.234 0 33.778-27.456 61.053-61.234 61.053z" />
<glyph unicode="&#xe925;" glyph-name="products2" data-tags="products" d="M129.874 960v-1024h764.433v1024h-764.433zM849.329-19.023h-674.659v934.046h674.478v-934.046zM236.085 641.547h556.526v-44.977h-556.526v44.977zM236.085 276.129h556.526v-44.977h-556.526v44.977zM421.594 821.456h174.309v-44.977h-174.309v44.977zM421.594 517.814h174.309v-44.977h-174.309v44.977zM421.594 159.802h174.309v-44.977h-174.309v44.977z" />
<glyph unicode="&#xe926;" glyph-name="projects2" data-tags="projects" d="M14.089 600.182v-664.182h996.002v664.182h-996.002zM980.107-34.196h-936.213v604.393h936.213v-604.393zM119.397 759.138h785.205v-142.699h28.54v171.239h-842.285v-171.239h28.54zM216.758 933.989h590.484v-108.198h26.011v134.209h-642.506v-134.209h26.011z" />
<glyph unicode="&#xe927;" glyph-name="search2" data-tags="search" d="M328.749 302.682c-87.787 0-170.336 34.139-232.473 96.277s-96.277 144.505-96.277 232.473c0 87.787 34.139 170.336 96.277 232.473 61.957 61.957 144.686 96.096 232.473 96.096s170.336-34.139 232.292-96.277c62.137-62.137 96.277-144.686 96.277-232.473s-34.139-170.336-96.277-232.292c-62.137-62.137-144.686-96.277-232.292-96.277zM328.749 900.030c-71.891 0-139.267-27.998-190.024-78.755s-78.755-118.133-78.755-190.024c0-71.711 27.998-139.267 78.755-190.024s118.133-78.755 190.024-78.755c71.711 0 139.267 27.998 190.024 78.755s78.755 118.133 78.755 190.024c0 71.711-27.817 139.267-78.755 190.024s-118.314 78.755-190.024 78.755zM994.015-64c-7.767 0-15.354 2.89-21.134 8.851l-454.288 454.108c-11.741 11.741-11.741 30.707 0 42.448s30.707 11.741 42.448 0l454.288-454.288c11.741-11.741 11.741-30.707 0-42.448-5.961-5.78-13.547-8.67-21.315-8.67z" />
<glyph unicode="&#xe928;" glyph-name="select-down" data-tags="select-down" d="M1024 891.36l-511.91-886.901-512.090 886.901z" />
<glyph unicode="&#xe929;" glyph-name="select-up" data-tags="select-up" d="M0 4.459l512.090 886.901 511.91-886.901z" />
<glyph unicode="&#xe92a;" glyph-name="settings" data-tags="settings" d="M568.086-53.704h-107.656c-16.257 0-21.856 0-76.949 136.738l-42.629 17.341c-116.146-52.744-129.874-52.744-134.39-52.744h-8.851l-7.587 6.503-76.226 74.601c-11.56 11.56-15.715 15.534 44.074 150.466l-17.341 41.184c-140.531 50.216-140.531 55.996-140.531 72.614v105.489c0 16.437 0 21.676 139.809 75.685l17.341 41.184c-63.221 132.945-58.886 137.099-46.422 148.84l82.007 80.381 10.115 0.361c12.464 0 58.344-16.799 136.738-49.854l42.448 17.341c51.119 137.28 57.441 137.28 73.517 137.28h107.656c16.076 0 21.856 0 76.949-136.738l42.629-17.16c115.965 52.564 129.874 52.564 134.57 52.564h8.851l7.587-6.322 76.226-74.601c11.56-11.741 15.534-15.715-44.074-150.647l17.341-41.365c140.351-50.035 140.351-55.815 140.351-72.433v-105.489c0-16.076 0-21.856-139.989-75.865l-17.16-41.184c62.86-132.222 58.705-136.377 46.964-148.298l-82.729-80.923-10.296-0.361c-12.283 0-58.163 16.799-136.377 49.854l-42.81-17.341c-50.938-137.099-56.718-137.099-73.156-137.099zM471.629-10.172h84.897c9.754 19.869 30.888 72.433 47.687 117.952l3.432 9.032 77.31 31.249 8.309-3.613c46.061-19.689 100.612-41.365 121.746-48.048l59.608 58.344c-7.587 20.953-30.527 72.433-51.299 115.785l-4.155 8.851 31.972 76.407 8.67 3.432c46.603 17.883 100.431 40.1 120.662 50.035v82.007c-20.411 9.573-74.059 29.985-120.301 46.422l-9.032 3.251-32.152 76.407 3.793 8.67c19.869 44.616 41.907 97.36 48.951 118.675l-59.97 58.163c-19.328-6.683-73.336-29.985-119.036-50.757l-8.49-3.974-77.31 31.249-3.432 8.67c-18.244 45.519-41.003 98.444-51.299 117.952h-84.897c-9.754-19.869-30.707-72.433-47.687-117.772l-3.251-9.032-77.13-31.249-8.309 3.613c-46.242 19.689-100.792 41.365-122.107 48.048l-59.608-58.344c7.406-20.953 30.527-72.253 51.119-115.604l4.155-8.851-32.152-76.226-8.67-3.432c-46.422-17.883-100.25-39.92-120.481-50.035v-82.007c20.411-9.573 74.059-30.165 120.301-46.603l9.032-3.251 32.152-76.226-3.793-8.67c-19.869-44.616-41.907-97.36-48.951-118.494l59.97-58.705c19.328 6.864 73.336 29.985 118.856 50.757l8.49 3.974 77.13-31.43 3.432-8.67c18.966-45.519 41.545-98.444 51.841-117.952zM512.090 272.336c-98.805 0-179.186 78.755-179.186 175.574s80.381 175.574 179.186 175.574c98.625 0 178.825-78.755 178.825-175.574s-80.2-175.574-178.825-175.574zM512.090 579.951c-74.781 0-135.474-59.247-135.474-131.861 0-72.794 60.692-132.042 135.474-132.042 74.601 0 135.293 59.247 135.293 132.042-0.181 72.614-60.692 131.861-135.293 131.861z" />
<glyph unicode="&#xe92b;" glyph-name="star" data-tags="star" d="M195.624-38.892l60.331 352.231-255.955 249.633 353.857 51.48 158.233 320.621 158.233-320.621 353.857-51.48-256.135-249.633 60.331-352.231-316.286 166.181-316.466-166.181zM512.090 168.473l268.238-141.073-51.299 298.584 217.119 211.519-300.029 43.532-134.029 271.85-134.029-271.67-299.848-43.532 216.758-211.7-51.119-298.584 268.238 141.073z" />
<glyph unicode="&#xe92c;" glyph-name="tool" data-tags="tool" d="M1021.291 704.406c-0.903 6.864-5.6 12.464-12.102 14.631s-13.547 0.542-18.424-4.335l-123.733-123.733-180.632 31.43-31.43 180.632 123.552 123.552c4.877 4.877 6.503 11.922 4.335 18.424s-7.767 11.199-14.631 12.102c-92.845 12.644-183.883-17.883-249.813-83.632-77.491-77.491-102.779-187.315-76.407-286.301l-398.834-399.015c-57.621-57.621-57.621-151.369 0-208.991s151.369-57.621 208.991 0l399.015 399.015c98.805-26.372 208.81-1.084 286.301 76.226 65.93 65.93 96.457 156.969 83.813 249.994zM226.693 4.64c-43.532-43.532-114.52-43.532-158.053 0s-43.532 114.52 0 158.053l386.551 386.371c14.451-34.32 35.404-66.653 63.402-94.651s60.331-49.132 94.651-63.402l-386.551-386.371zM912.008 480.062c-101.515-101.515-266.612-101.515-368.127 0-101.334 101.334-101.334 266.431 0.181 367.946 48.771 48.771 113.256 75.504 181.173 76.046l-102.057-102.057c-4.155-4.155-5.961-9.935-5.058-15.715l35.223-202.307c1.264-7.587 7.225-13.367 14.631-14.631l202.307-35.223c5.78-1.084 11.56 0.903 15.715 5.058l102.057 102.057c-0.542-68.098-27.275-132.584-76.046-181.173z" />
<glyph unicode="&#xe92d;" glyph-name="user" data-tags="user" d="M512.090 255.898c158.775 0 287.927 157.872 287.927 352.051s-129.152 352.051-287.927 352.051c-78.394 0-151.55-37.571-206.101-105.85-52.925-66.111-82.007-153.537-82.007-246.201 0-193.998 129.152-352.051 288.107-352.051zM512.090 895.876c123.552 0 223.983-129.152 223.983-287.927s-100.431-287.927-223.983-287.927c-123.552 0-223.983 129.152-223.983 287.927-0.181 158.775 100.431 287.927 223.983 287.927zM736.073 320.023c-17.702 0-31.972-14.27-31.972-31.972s14.27-31.972 31.972-31.972c123.552 0 223.983-100.431 223.983-223.983 0-17.702-14.451-31.972-31.972-31.972h-831.989c-17.702 0-31.972 14.451-31.972 31.972 0 123.552 100.431 223.983 223.983 223.983 17.702 0 31.972 14.27 31.972 31.972s-14.27 31.972-31.972 31.972c-158.956 0-288.107-129.332-288.107-288.107 0-52.925 42.99-96.096 96.096-96.096h831.989c52.925 0 95.915 42.99 95.915 96.096 0 158.775-129.152 288.107-287.927 288.107z" />
<glyph unicode="&#xe92e;" glyph-name="users2" data-tags="users" d="M422.497 241.267c70.085 0 132.945 37.571 176.477 96.638 1.084 0 1.987-0.181 3.071-0.181 130.958 0 237.711 130.235 237.711 290.455 0 160.040-106.573 290.455-237.711 290.455-64.666 0-124.997-31.069-169.974-87.245-2.348-3.071-4.516-6.322-6.864-9.393 0 0 0 0 0 0-0.903 0-1.806 0.181-2.709 0.181-64.666 0-124.997-31.069-169.974-87.245-43.713-54.551-67.556-126.623-67.556-203.21-0.181-160.040 106.392-290.455 237.53-290.455zM602.045 865.891c101.876 0 184.786-106.573 184.786-237.711 0-118.133-67.376-216.035-155.343-234.279 0 0 0 0 0 0 18.244 41.003 28.54 87.968 28.54 137.822 0 133.667-74.601 246.381-175.393 279.979v0c31.972 33.778 72.794 54.189 117.41 54.189zM615.953 363.735c0.361 0.542 0.542 0.903 0.903 1.445-0.361-0.542-0.723-0.903-0.903-1.445zM457.178 818.746c-0.903 0.181-1.806 0.361-2.709 0.542 0.723-0.181 1.806-0.361 2.709-0.542zM422.497 769.253c101.876 0 184.786-106.573 184.786-237.711 0-130.958-82.91-237.711-184.786-237.711s-184.786 106.573-184.786 237.711c-0.181 131.138 82.729 237.711 184.786 237.711zM786.47 391.191c-14.631 0-26.372-11.741-26.372-26.372s11.741-26.372 26.372-26.372c101.876 0 184.786-82.91 184.786-184.786 0-14.631-11.922-26.372-26.372-26.372h-110.727c-30.165 96.638-120.481 166.904-226.873 166.904-14.631 0-26.372-11.741-26.372-26.372s11.741-26.372 26.372-26.372c101.876 0 184.786-82.91 184.786-184.786 0-14.631-11.922-26.372-26.372-26.372h-686.4c-14.631 0-26.372 11.922-26.372 26.372 0 101.876 82.91 184.786 184.786 184.786 14.631 0 26.372 11.741 26.372 26.372s-11.741 26.372-26.372 26.372c-131.138 0-237.711-106.753-237.711-237.711 0-43.713 35.584-79.297 79.297-79.297h686.4c43.713 0 79.297 35.584 79.297 79.297 0 5.961-0.542 11.922-0.903 17.883h100.792c43.713 0 79.297 35.584 79.297 79.297-0.181 130.958-106.753 237.53-237.711 237.53z" />
<glyph unicode="&#xe92f;" glyph-name="view-hover" data-tags="view-hover" d="M1014.968 456.038c-9.032 10.657-227.596 261.916-502.878 261.916s-493.847-251.258-503.059-261.916l-9.032-10.477 9.032-10.477c9.212-10.657 227.776-262.096 502.878-262.096 275.282 0 493.847 251.258 503.059 262.096l9.032 10.477-9.032 10.477zM512.090 205.322c-229.221 0-424.123 192.373-468.739 240.059 44.797 47.687 239.517 240.059 468.739 240.059s423.942-192.553 468.739-240.059c-44.797-47.687-239.517-240.059-468.739-240.059zM512.090 546.715c-55.815 0-101.334-45.339-101.334-101.154s45.339-101.154 101.334-101.154 101.334 45.339 101.334 101.154c-0.181 55.635-45.519 101.154-101.334 101.154z" />
<glyph unicode="&#xe930;" glyph-name="view" data-tags="view" d="M1014.968 456.038c-9.032 10.657-227.596 261.916-502.878 261.916s-493.847-251.258-503.059-261.916l-9.032-10.477 9.032-10.477c9.212-10.657 227.776-262.096 502.878-262.096 275.282 0 493.847 251.258 503.059 262.096l9.032 10.477-9.032 10.477zM512.090 205.322c-229.221 0-424.123 192.373-468.739 240.059 44.797 47.687 239.517 240.059 468.739 240.059s423.942-192.553 468.739-240.059c-44.797-47.687-239.517-240.059-468.739-240.059zM512.090 546.715c-55.815 0-101.334-45.339-101.334-101.154s45.339-101.154 101.334-101.154 101.334 45.339 101.334 101.154c-0.181 55.635-45.519 101.154-101.334 101.154zM512.090 376.56c-37.933 0-68.821 30.888-68.821 68.821s30.888 68.821 68.821 68.821 68.821-30.888 68.821-68.821c-0.181-37.933-31.069-68.821-68.821-68.821z" />
<glyph unicode="&#xe931;" glyph-name="views" data-tags="views" d="M0.181 820.011v-661.834h1023.458v661.834h-1023.458zM994.738 187.078h-965.475v603.851h965.656v-603.851zM318.995 75.989h374.449v49.854h-374.449zM761.723 487.829c-4.696 5.419-115.604 133.125-255.594 133.125s-250.897-127.706-255.413-133.125l-4.516-5.419 4.516-5.419c4.696-5.419 115.604-133.125 255.413-133.125s250.897 127.706 255.594 133.125l4.516 5.419-4.516 5.419zM506.129 368.432c-108.74 0-201.223 91.4-222.538 113.978 21.134 22.579 113.798 113.978 222.538 113.978s201.223-91.4 222.538-113.978c-21.315-22.579-113.617-113.978-222.538-113.978zM506.129 537.322c-30.346 0-54.912-24.566-54.912-54.912s24.566-54.912 54.912-54.912c30.346 0 54.912 24.566 54.912 54.912s-24.566 54.912-54.912 54.912zM506.129 449.716c-18.063 0-32.694 14.631-32.694 32.694s14.631 32.694 32.694 32.694c18.063 0 32.694-14.631 32.694-32.694 0-17.883-14.631-32.694-32.694-32.694z" />
<glyph unicode="&#xe932;" glyph-name="warning" data-tags="warning" d="M1013.162 97.304l-444.715 770.032c-11.56 20.231-33.236 32.694-56.538 32.694s-44.977-12.464-56.538-32.694l-446.702-773.464c-11.56-20.050-11.56-45.158 0-65.208 11.56-20.231 33.236-32.694 56.538-32.694h893.584c35.946 0 65.208 29.262 65.208 65.389 0 13.186-3.974 26.192-10.838 35.946zM958.792 33.722h-893.403c-9.754 0-18.966 5.238-23.843 13.728s-4.877 18.966 0 27.456l446.521 773.645c4.877 8.49 14.089 13.728 23.843 13.728s18.966-5.238 23.843-13.728l445.437-771.477c3.251-4.696 5.058-10.115 5.058-15.896 0-15.173-12.283-27.456-27.456-27.456zM532.502 259.15l10.296 351.509h-76.768l10.296-351.509zM504.323 208.754c-26.733 0-46.061-20.231-46.061-48.229s19.328-48.229 46.061-48.229c27.095 0 46.061 19.869 46.061 48.229 0.181 28.359-18.786 48.229-46.061 48.229z" />
<glyph unicode="&#xe933;" glyph-name="yes" data-tags="yes" d="M1009.73 811.16c-18.786 18.786-49.674 19.147-68.64 0l-622.998-623.179-235.182 235.182c-19.147 19.147-49.674 19.147-68.64 0-18.786-18.786-19.147-49.674 0-68.64l269.502-269.502c9.754-9.754 22.218-14.27 34.32-14.27 0 0 0 0 0.181 0 1.445 0 3.071 0 4.516 0.181h0.181c1.445 0.181 2.89 0.181 4.335 0.542 0.181 0 0.542 0.181 0.723 0.181 1.264 0.181 2.529 0.542 3.613 1.084 0.542 0 0.723 0.181 1.264 0.542 1.084 0.181 1.987 0.723 3.251 1.084 0.542 0.181 1.084 0.542 1.445 0.723 1.084 0.542 1.806 0.723 2.89 1.264 0.723 0.181 1.264 0.723 1.987 1.264s1.445 0.723 1.987 1.264c0.723 0.542 1.445 1.084 1.987 1.445 0.542 0.542 1.264 0.723 1.806 1.264 1.264 1.084 2.529 1.987 3.613 3.251l657.137 657.137c19.869 19.147 19.869 50.035 0.723 69.182z" />
<glyph unicode="&#xe934;" glyph-name="trash" data-tags="trash" d="M925.375 841.325h-266.431c2.168 6.322 3.613 13.005 3.613 20.050v38.655c0 33.056-26.733 59.97-59.97 59.97h-187.315c-33.056 0-59.97-26.914-59.97-59.97v-38.655c0-7.045 1.445-13.728 3.793-20.050h-260.471c-11.019 0-20.050-8.851-20.050-20.050 0-11.019 8.851-20.050 20.050-20.050h85.077c-2.529-6.141-3.974-12.825-3.974-20.050v-790.624c0-30.346 24.747-54.912 54.912-54.912h554.539c30.346 0 54.912 24.747 54.912 54.912v790.985c0 7.045-1.445 13.728-3.974 20.050h85.077c11.019 0 20.050 8.851 20.050 20.050 0.181 10.838-8.851 19.689-19.869 19.689zM395.402 861.375v38.655c0 11.019 9.032 20.050 20.050 20.050h187.315c11.019 0 20.050-9.032 20.050-20.050v-38.655c0-11.019-9.032-20.050-20.050-20.050h-187.496c-11.019 0-19.869 9.032-19.869 20.050zM814.287 781.536v-790.624c0-13.728-11.199-24.927-24.927-24.927h-554.539c-13.728 0-24.927 11.199-24.927 24.927v790.624c0 8.309 4.335 15.534 10.838 20.050h582.898c6.141-4.696 10.657-11.741 10.657-20.050zM339.587 679.479c-8.309 0-14.992-6.683-14.992-14.992v-556.526c0-8.309 6.683-14.992 14.992-14.992s14.992 6.683 14.992 14.992v556.526c0 8.309-6.683 14.992-14.992 14.992zM511.91 679.479c-8.309 0-14.992-6.683-14.992-14.992v-556.526c0-8.309 6.683-14.992 14.992-14.992s14.992 6.683 14.992 14.992v556.526c0.181 8.309-6.683 14.992-14.992 14.992zM686.761 92.969c8.309 0 14.992 6.683 14.992 14.992v556.526c0 8.309-6.683 14.992-14.992 14.992s-14.992-6.683-14.992-14.992v-556.526c0-8.309 6.864-14.992 14.992-14.992z" />
<glyph unicode="&#xe935;" glyph-name="arrow-down-one" data-tags="arrow-down-one" d="M1024 697.904l-511.91-527.263-512.090 527.263 28.179 27.275 483.912-498.182 483.912 498.182z" />
<glyph unicode="&#xe936;" glyph-name="arrow-down-two" data-tags="arrow-down-two" d="M1024 925.138l-511.91-527.083-512.090 527.083 28.179 27.275 483.912-498.182 483.912 498.362zM1024 470.669l-511.91-527.263-512.090 527.263 28.179 27.275 483.912-498.182 483.912 498.182z" />
<glyph unicode="&#xe937;" glyph-name="arrow-up-one" data-tags="arrow-up-one" d="M0 197.916l511.91 527.263 512.090-527.263-28.179-27.275-483.912 498.182-483.912-498.182z" />
<glyph unicode="&#xe938;" glyph-name="arrow-up-two" data-tags="arrow-up-two" d="M0-29.138l511.91 527.083 512.090-527.083-28.179-27.275-483.912 498.182-483.912-498.362zM0 425.331l511.91 527.263 512.090-527.263-28.179-27.275-483.912 498.182-483.912-498.182z" />
<glyph unicode="&#xe939;" glyph-name="arrow-lvl-up" data-tags="arrow-lvl-up" d="M512.090 960l-334.891-334.891 26.553-26.553 289.372 289.372v-914.176h-315.925v-37.752h353.676v952.109l289.372-289.552 26.733 26.553z" />
</font>
</defs>
</svg>
